<?xml version="1.0" encoding="utf-8"?>
<!-- Generator: Adobe Illustrator 16.0.0, SVG Export Plug-In . SVG Version: 6.00 Build 0)  -->
<!DOCTYPE svg PUBLIC "-//W3C//DTD SVG 1.1//EN" "http://www.w3.org/Graphics/SVG/1.1/DTD/svg11.dtd">
<svg version="1.1" id="图层_1" xmlns="http://www.w3.org/2000/svg" xmlns:xlink="http://www.w3.org/1999/xlink" x="0px" y="0px"
	 width="220px" height="330px" viewBox="0 0 220 330" enable-background="new 0 0 220 330" xml:space="preserve">
<g>
	<path fill="#ED3714" d="M14.032,106.583c-6.988,0-12.815-5.686-12.99-12.675c-0.086-3.472,1.184-6.769,3.577-9.285
		c2.393-2.516,5.623-3.949,9.094-4.036l0.331-0.004c7.106,0,12.812,5.568,12.99,12.675c0.086,3.471-1.184,6.769-3.577,9.285
		c-2.394,2.516-5.623,3.949-9.094,4.036L14.032,106.583z"/>
	<path fill="#FFFFFF" d="M14.044,81.583c6.45,0,11.829,5.249,11.99,11.7c0.08,3.204-1.093,6.248-3.302,8.57
		c-2.209,2.323-5.19,3.646-8.395,3.726c-0.103,0.002-0.205,0.004-0.306,0.004c-6.45,0-11.829-5.249-11.99-11.7
		c-0.08-3.205,1.092-6.249,3.301-8.571c2.209-2.322,5.191-3.646,8.395-3.725C13.841,81.585,13.943,81.583,14.044,81.583
		 M14.044,79.583c-0.118,0-0.237,0.001-0.356,0.004C5.959,79.781-0.151,86.203,0.042,93.933c0.19,7.61,6.419,13.65,13.989,13.65
		c0.118,0,0.237-0.001,0.356-0.004c7.729-0.193,13.839-6.616,13.646-14.345C27.844,85.623,21.614,79.583,14.044,79.583
		L14.044,79.583z"/>
</g>
<g>
	<path fill="#FD5093" d="M14.032,147c-6.988,0-12.815-5.686-12.99-12.675c-0.086-3.472,1.184-6.769,3.577-9.285
		c2.393-2.516,5.623-3.949,9.094-4.036L14.044,121c7.106,0,12.812,5.568,12.99,12.675c0.086,3.471-1.184,6.769-3.577,9.285
		c-2.394,2.516-5.623,3.949-9.094,4.036L14.032,147z"/>
	<path fill="#FFFFFF" d="M14.044,122c6.45,0,11.829,5.249,11.99,11.7c0.08,3.204-1.093,6.248-3.302,8.57
		c-2.209,2.323-5.19,3.646-8.395,3.726c-0.103,0.003-0.205,0.004-0.306,0.004c-6.45,0-11.829-5.249-11.99-11.7
		c-0.08-3.205,1.092-6.249,3.301-8.571c2.209-2.322,5.191-3.645,8.395-3.725C13.841,122.001,13.943,122,14.044,122 M14.044,120
		c-0.118,0-0.237,0.001-0.356,0.004c-7.729,0.193-13.839,6.615-13.646,14.345C0.232,141.96,6.462,148,14.032,148
		c0.118,0,0.237-0.001,0.356-0.004c7.729-0.193,13.839-6.616,13.646-14.345C27.844,126.039,21.614,120,14.044,120L14.044,120z"/>
</g>
<g>
	<path fill="#00A4FF" d="M13.994,67c-6.988,0-12.815-5.686-12.99-12.675c-0.086-3.472,1.184-6.769,3.577-9.285
		c2.393-2.516,5.623-3.949,9.094-4.036L14.006,41c7.106,0,12.812,5.568,12.99,12.675c0.086,3.471-1.184,6.769-3.577,9.285
		c-2.394,2.516-5.623,3.949-9.094,4.036L13.994,67z"/>
	<path fill="#FFFFFF" d="M14.006,42c6.45,0,11.829,5.249,11.99,11.7c0.08,3.204-1.092,6.248-3.302,8.57
		c-2.209,2.323-5.19,3.646-8.395,3.726C14.197,65.999,14.095,66,13.994,66c-6.45,0-11.829-5.249-11.99-11.7
		c-0.08-3.205,1.092-6.249,3.301-8.571c2.209-2.322,5.191-3.645,8.395-3.725C13.803,42.001,13.905,42,14.006,42 M14.006,40
		c-0.118,0-0.237,0.001-0.356,0.004C5.921,40.197-0.189,46.62,0.004,54.35C0.194,61.96,6.424,68,13.994,68
		c0.118,0,0.237-0.001,0.356-0.004c7.729-0.193,13.839-6.616,13.646-14.345C27.806,46.039,21.576,40,14.006,40L14.006,40z"/>
</g>
<path fill="#FFFFFF" d="M18.492,49.006l-4.42,8.555l-4.463-8.528l-2.539,0.005l0.753,1.683h0.002l5.347,10.273l1.789-0.022
	l5.377-10.267l0.744-1.675"/>
<g>
	<path fill="#FFB502" d="M14.076,27c-7.168,0-13-5.832-13-13s5.832-13,13-13s13,5.832,13,13S21.244,27,14.076,27z"/>
	<path fill="#FFFFFF" d="M14.076,2c6.617,0,12,5.383,12,12s-5.383,12-12,12s-12-5.383-12-12S7.459,2,14.076,2 M14.076,0
		c-7.732,0-14,6.268-14,14c0,7.731,6.268,14,14,14s14-6.269,14-14C28.076,6.268,21.808,0,14.076,0L14.076,0z"/>
</g>
<path fill="#FFFFFF" d="M6.891,126.891c2.992,0.932,5.505,5.816,6.155,8.588c0.168,0.716-0.211,2.134,0.927,2.02
	c1.195,0.128,0.716-1.269,0.953-2.055c2.234-7.422,6.184-8.553,6.184-8.553s-0.2,6.685-3.183,10.836
	c-0.829,1.154,0.988,2.25,1.405,3.382c-0.602,0-1.805-0.028-1.805-0.028l0.019-0.851c0,0-1.513,0.003-3.519,0.019
	c-2,0.016-3.581-0.002-3.581-0.002l0.029,0.862c0,0-1.203,0-1.805,0c0.446-1.416,2.146-2.407,1.477-3.392
	c-2.905-4.269-2.788-5.648-3.254-10.827"/>
<path fill="#FDB713" d="M18.633,163.73c-0.611,0.612-1.425,1.222-2.24,1.767c1.625-2.197,1.624-5.475-3.274-5.493
	c-4.968,0.018-4.961,3.327-3.296,5.523c-0.831-0.551-1.664-1.173-2.288-1.797c-5.549,0-7.398,5.549-7.398,7.399
	c0,5.549,3.699,9.249,3.699,9.249v1.851l1.85,3.698h14.798l1.85-3.698v-1.851c0,0,3.699-3.7,3.699-9.249
	C26.031,169.279,24.182,163.73,18.633,163.73"/>
<path fill="#FDE253" d="M5.685,184.061h14.798v-1.853H5.685V184.061 M13.1,166.375c1.75,0,4.904-4.53,0-4.53
	C8.13,161.845,11.352,166.375,13.1,166.375 M18.633,165.562c-1.85,2.772-5.533,2.811-5.533,2.811s-3.716-0.032-5.565-2.811
	c-4.382,1.289-5.549,3.697-5.549,6.479c0,4.624,3.699,6.477,3.699,6.477v1.854h14.798v-1.854c0,0,3.699-1.853,3.699-6.477
	C24.182,169.26,23.014,166.852,18.633,165.562"/>
<linearGradient id="SVGID_1_" gradientUnits="userSpaceOnUse" x1="4.584" y1="137.2798" x2="4.584" y2="127.3398" gradientTransform="matrix(1 0 0 -1 8.5 306)">
	<stop  offset="0" style="stop-color:#E82208;stop-opacity:0.9"/>
	<stop  offset="1" style="stop-color:#CC1108;stop-opacity:0.9"/>
</linearGradient>
<path fill="url(#SVGID_1_)" d="M3.85,172.01c0.058,3.121,4.624,6.504,4.624,6.504h2.774c0,0,0-7.688,0-9.25
	c-1.85,0-3.757-1.328-3.757-1.328S3.792,168.889,3.85,172.01 M18.647,167.936c0,0-0.925,1.328-3.699,1.328c0,1.563,0,9.25,0,9.25
	h2.774c0,0,4.537-3.354,4.595-6.475C22.376,168.917,18.647,167.936,18.647,167.936"/>
<linearGradient id="SVGID_2_" gradientUnits="userSpaceOnUse" x1="4.584" y1="138.064" x2="4.584" y2="127.4858" gradientTransform="matrix(1 0 0 -1 8.5 306)">
	<stop  offset="0" style="stop-color:#E82208;stop-opacity:0.8"/>
	<stop  offset="1" style="stop-color:#CC1108"/>
</linearGradient>
<path fill="url(#SVGID_2_)" stroke="#C62B1A" stroke-width="0.75" stroke-miterlimit="10" d="M3.85,172.01
	c0.058,3.121,4.624,6.504,4.624,6.504h2.774c0,0,0-7.688,0-9.25c-1.85,0-3.757-1.328-3.757-1.328S3.792,168.889,3.85,172.01z
	 M18.647,167.936c0,0-0.925,1.328-3.699,1.328c0,1.563,0,9.25,0,9.25h2.774c0,0,4.537-3.354,4.595-6.475
	C22.376,168.917,18.647,167.936,18.647,167.936z"/>
<path fill="#BEBEBE" d="M18.497,203.73c-0.611,0.609-1.425,1.226-2.24,1.771c1.625-2.197,1.624-5.479-3.274-5.493
	c-4.968,0.021-4.961,3.327-3.296,5.521c-0.831-0.551-1.664-1.174-2.288-1.797c-5.549,0-7.398,5.549-7.398,7.396
	c0,5.549,3.699,9.249,3.699,9.249v1.854l1.85,3.695h14.798l1.85-3.695v-1.854c0,0,3.699-3.7,3.699-9.249
	C25.897,209.277,24.046,203.73,18.497,203.73"/>
<path fill="#FEFEFE" d="M5.549,224.061h14.798v-1.853H5.549V224.061 M12.964,206.375c1.75,0,4.904-4.527,0-4.527
	C7.994,201.848,11.216,206.375,12.964,206.375 M18.497,205.562c-1.85,2.772-5.533,2.811-5.533,2.811s-3.716-0.032-5.565-2.811
	c-4.382,1.289-5.549,3.697-5.549,6.479c0,4.624,3.699,6.477,3.699,6.477v1.854h14.798v-1.854c0,0,3.699-1.853,3.699-6.477
	C24.046,209.26,22.878,206.852,18.497,205.562"/>
<path fill="#BEBEBE" d="M3.714,212.01c0.058,3.121,4.624,6.504,4.624,6.504h2.774c0,0,0-7.688,0-9.25
	c-1.85,0-3.757-1.328-3.757-1.328S3.656,208.889,3.714,212.01 M18.512,207.936c0,0-0.925,1.328-3.699,1.328c0,1.563,0,9.25,0,9.25
	h2.774c0,0,4.537-3.354,4.595-6.475C22.24,208.917,18.512,207.936,18.512,207.936"/>
<path fill="none" stroke="#BEBEBE" stroke-width="0.75" stroke-miterlimit="10" d="M3.714,212.01
	c0.058,3.121,4.624,6.504,4.624,6.504h2.774c0,0,0-7.688,0-9.25c-1.85,0-3.757-1.328-3.757-1.328S3.656,208.889,3.714,212.01z
	 M18.512,207.936c0,0-0.925,1.328-3.699,1.328c0,1.563,0,9.25,0,9.25h2.774c0,0,4.537-3.354,4.595-6.475
	C22.24,208.917,18.512,207.936,18.512,207.936z"/>
<path fill="#31A0FF" d="M65.999,0c8.836,0,15.999,7.163,15.999,16c0,8.836-7.163,15.999-15.999,15.999S50,24.835,50,16
	C50,7.163,57.163,0,65.999,0z"/>
<path fill="#FFFFFF" d="M73.56,7.505h-4.686c-0.518,0-0.938,0.42-0.938,0.938s0.42,0.937,0.938,0.937h2.443l-2.623,2.624
	c-1.174-0.9-2.637-1.44-4.23-1.44c-3.847,0-6.965,3.118-6.965,6.965c0,3.848,3.119,6.966,6.965,6.966
	c3.847,0,6.966-3.118,6.966-6.966c0-1.577-0.531-3.03-1.414-4.195l2.608-2.608v2.403c0,0.518,0.42,0.938,0.938,0.938
	s0.937-0.419,0.937-0.938V8.442C74.497,7.925,74.077,7.505,73.56,7.505 M64.438,22.359c-2.673,0-4.84-2.167-4.84-4.84
	s2.167-4.84,4.84-4.84s4.84,2.167,4.84,4.84S67.111,22.359,64.438,22.359"/>
<path fill="#FD3E88" d="M65.999,40c8.836,0,15.999,7.163,15.999,16c0,8.836-7.163,15.999-15.999,15.999S50,64.835,50,56
	C50,47.163,57.163,40,65.999,40z"/>
<path fill="#FFFFFF" d="M67.62,47.43c-3.848,0-6.968,3.119-6.968,6.967c0,1.54,0.506,2.959,1.352,4.113l-0.988,0.988l-1.828-1.828
	c0,0-0.731-0.732-1.462,0c-0.731,0.73,0,1.462,0,1.462l1.828,1.828l-1.828,1.828l1.462,1.462l1.828-1.828l1.828,1.828
	c0,0,0.731,0.731,1.462,0s0-1.462,0-1.462l-1.828-1.828l0.982-0.982c1.162,0.868,2.598,1.388,4.16,1.388
	c3.848,0,6.968-3.12,6.968-6.968S71.469,47.43,67.62,47.43 M67.547,59.247c-2.663,0-4.822-2.159-4.822-4.822
	c0-2.663,2.159-4.821,4.822-4.821s4.821,2.158,4.821,4.821C72.368,57.088,70.21,59.247,67.547,59.247"/>
<g opacity="0.7">
	<path fill="#FFFFFF" d="M184.83,0c-13.715,0-24.834,11.12-24.834,24.834s11.12,24.833,24.834,24.833s24.834-11.12,24.834-24.833
		C209.664,11.119,198.544,0,184.83,0 M196.891,26.22l-18.736,10.382c-0.252,0.137-0.482,0.234-0.766,0.234
		c-0.75,0-1.355-0.598-1.355-1.342h-0.004V14.177h0.004c0-0.74,0.605-1.342,1.355-1.342c0.271,0,0.514,0.083,0.742,0.22l18.76,10.05
		c0.449,0.371,0.738,0.932,0.738,1.557S197.34,25.847,196.891,26.22"/>
</g>
<path opacity="0.7" fill="#9A9A9A" enable-background="new    " d="M196.891,23.21l-18.76-10.162
	c-0.229-0.136-0.469-0.219-0.742-0.219c-0.748,0-1.355,0.603-1.355,1.341h-0.004v21.315h0.004c0,0.742,0.607,1.342,1.355,1.342
	c0.283,0,0.516-0.099,0.768-0.235l18.734-10.267c0.451-0.372,0.739-0.933,0.739-1.558S197.342,23.581,196.891,23.21"/>
<path fill="#929292" d="M147.09,19.19c-1.049-1.69-2.794-2.663-4.637-2.817l-12.38-0.021c0.997-2.415,1.565-5.05,1.565-7.827
	c-0.02-0.819-0.068-1.619-0.15-2.396c0,0-0.406-6.132-5.691-6.132c-3.074,0-5.568,2.507-5.568,5.598c0,0.434-0.013,0.66-0.013,0.63
	c0,6.2-4.758,11.221-10.81,11.788h-7.584c-0.005,0-0.009,0.004-0.014,0.004h-0.101c0.016,0,0.037,0.005,0.055,0.009
	c-0.455,0.012-0.854,0.202-1.145,0.505c-0.307,0.297-0.496,0.706-0.496,1.156V44.47c0,0.47,0.214,0.886,0.546,1.187
	c0.267,0.294,0.632,0.471,1.044,0.487h-0.004h0.007c0.018,0,0.03,0.009,0.042,0.009h37.17c-0.521,0,1.383-0.143,2.557-0.888
	c1.557-0.988,2.453-2.599,2.642-4.298c0.001-0.026,0.024,0.063,0.03,0.038l3.836-18.442c0.035-1.147-0.254-2.321-0.903-3.372
	 M108.412,42.846h-4.955V21.322h4.955V42.846 M141.173,39.982c0.042-0.156,0.029-0.136-0.057,0.272L141.173,39.982
	c-0.104,0.395-0.565,2.064-1.194,2.459c-0.758,0.479-1.23,0.4-1.23,0.4h-27.04v-22.08c5.183-1.53,9.46-5.77,11.06-10.479
	c0.006,0,0.006,0,0.002,0.003c0.196-0.559,0.349-1.102,0.381-1.543c0.168-1.893,0.295-3.473,0.295-3.473s0.146-2.145,2.259-2.145
	c1.198,0,2.212,0.853,2.405,2.145c0.084,0.143,0.181,0.849,0.168,3.141c-0.135,2.46-0.528,4.269-0.752,4.951
	c-0.32,1.22-0.754,2.132-1.321,3.23c0,0-0.422,0.549-0.422,1.417c0,0.917,0.716,1.657,1.596,1.657l15.07,0.088
	c0.784-0.005,1.559,0.344,2.01,1.064c0.272,0.441,0.34,0.938,0.304,1.417l-3.598,17.746"/>
<g enable-background="new    ">
	<path fill="#E04023" d="M147.32,99.2c-1.051-1.694-2.801-2.667-4.646-2.824l-12.406-0.021c0.998-2.419,1.565-5.063,1.565-7.845
		c-0.017-0.822-0.065-1.622-0.146-2.402c0,0-0.408-6.146-5.707-6.146c-3.082,0-5.582,2.512-5.582,5.611
		c0,0.434-0.012,0.661-0.012,0.632c0,6.212-4.768,11.245-10.833,11.814h-7.603c-0.005,0-0.008,0.005-0.012,0.005h-0.101
		c0.017,0,0.037,0.004,0.055,0.008c-0.456,0.012-0.855,0.202-1.147,0.505c-0.307,0.3-0.497,0.708-0.497,1.159v24.838
		c0,0.472,0.215,0.89,0.548,1.189c0.266,0.294,0.632,0.472,1.046,0.489h-0.004h0.008c0.017,0,0.029,0.008,0.042,0.008h37.259
		c-0.522,0,1.388-0.144,2.563-0.889c1.56-0.99,2.457-2.605,2.646-4.308c0.002-0.025,0.026,0.063,0.029,0.038l3.844-18.482
		c0.039-1.149-0.252-2.325-0.905-3.379 M108.565,122.909h-4.966v-21.572h4.966V122.909 M141.398,120.039
		c0.043-0.156,0.028-0.135-0.055,0.274L141.398,120.039c-0.105,0.396-0.564,2.069-1.196,2.465c-0.759,0.481-1.235,0.4-1.235,0.4
		h-27.09v-22.13c5.191-1.535,9.479-5.783,11.08-10.503c0.004,0,0.004,0,0.009,0.003c0.196-0.56,0.351-1.104,0.384-1.547
		c0.168-1.897,0.295-3.481,0.295-3.481s0.146-2.15,2.265-2.15c1.2,0,2.216,0.856,2.409,2.15c0.084,0.143,0.183,0.852,0.168,3.148
		c-0.135,2.466-0.529,4.278-0.754,4.96c-0.318,1.222-0.756,2.137-1.323,3.237c0,0-0.423,0.552-0.423,1.42
		c0,0.919,0.72,1.661,1.6,1.661l15.1,0.088c0.789-0.004,1.563,0.346,2.01,1.066c0.272,0.442,0.341,0.94,0.304,1.421l-3.606,17.789"
		/>
</g>
<g enable-background="new    ">
	<path fill="#FFD7A5" d="M103.53,122.91h4.966v-21.572h-4.966V122.91 M141.273,120.314c0.088-0.409,0.099-0.435,0.056-0.274
		L141.273,120.314 M144.63,100.832c-0.446-0.721-1.222-1.071-2.01-1.066l-15.101-0.088c-0.879,0-1.599-0.742-1.599-1.661
		c0-0.868,0.422-1.42,0.422-1.42c0.568-1.1,1-2.02,1.324-3.237c0.224-0.682,0.619-2.495,0.754-4.96c0.015-2.297-0.084-3-0.168-3.152
		c-0.198-1.294-1.215-2.15-2.41-2.15c-2.118,0-2.264,2.15-2.264,2.15s-0.127,1.588-0.296,3.48c-0.038,0.443-0.189,0.992-0.389,1.552
		c-0.004,0-0.004,0-0.008-0.003c-1.603,4.72-5.893,8.968-11.08,10.506v22.13h27.09c0,0,0.478,0.08,1.235-0.4
		c0.627-0.4,1.091-2.069,1.197-2.466l3.604-17.787c0.039-0.49-0.029-0.983-0.302-1.426"/>
	<path fill="#F48700" d="M103.53,101.34h4.966v21.572h-4.966V101.34z"/>
</g>
<path fill="#FFFFFF" d="M18.492,9.006l-4.42,8.555L9.608,9.032L7.069,9.037l0.753,1.683h0.002l5.347,10.273l1.789-0.022
	l5.377-10.267l0.744-1.675"/>
<g>
	<g>
		<path fill-rule="evenodd" clip-rule="evenodd" fill="#FFFFFF" d="M22.048,90.916l-5.266-0.039l-2.799-5.879l-2.744,5.89
			l-5.211,0.024l3.91,4.241l-1.247,5.851L22.048,90.916z M12.397,92.574l1.599-3.13l1.467,3.13l1.16-0.034l-5.196,4.11l0.4-1.69
			l-1.778-2.386H12.397z M14.476,98.414l5.564,2.485l-1.416-5.894L14.476,98.414z"/>
	</g>
</g>
</svg>
